# WaveFront *.obj file (generated by CINEMA 4D)

mtllib ./arm.mtl

v 0 2 -2.09999990463257
v 0.40000000596046 3 -3.5
v 0 2 -2.40000009536743
v 0 2 -2.5
v 0 2 -2.84999990463257
v 0 3 -3.5
v 0 2.09999990463257 -3
v 0.60000002384186 3 -3.5
v 0 2.09999990463257 -3.15000009536743
v 0 2.5 -3.09999990463257
v 0 2.5 -3.20000004768372
v 1 2 -2.09999990463257
v 1 2 -2.20000004768372
v 1 2 -2.29999995231628
v 1 2 -2.40000009536743
v 1 2 -2.5
v 1 2 -2.59999990463257
v 1 2 -3.5
v 1 2.09999990463257 -3.04999995231628
v 0.30000001192093 3 -3.5
v 1 2.09999990463257 -3.20000004768372
v 1 2.09999990463257 -3.5
v 1 2.5 -3.09999990463257
v 1 3 -3.5
v 0 2 0
v 1 2 0
v 0 2 -3.5
v 0 2.09999990463257 -3.5
v 0.30000001192093 2.40000009536743 -3.5
v 0.40000000596046 2.40000009536743 -3.5
v 0.60000002384186 2.40000009536743 -3.5
v 0.69999998807907 2.40000009536743 -3.5
v 0.69999998807907 3 -3.5
v 0 2 -2.25
v 0 2 -2.59999990463257
v 1 2 -2.70000004768372
v 1 2 -3
v 0 3 0
v 1 3 0
v 0 3 -2.09999990463257
v 1 3 -2.09999990463257
v 0 3 -2.20000004768372
v 1 3 -2.20000004768372
v 0 3 -2.29999995231628
v 1 3 -2.29999995231628
v 0 3 -2.40000009536743
v 1 3 -2.40000009536743
v 0 3 -2.5
v 1 3 -2.5
v 0 3 -2.59999990463257
v 1 3 -2.59999990463257
v 0 3 -2.70000004768372
v 1 3 -2.70000004768372
v 0.30000001192093 3 -3
v 0.40000000596046 3 -3
v 0.60000002384186 3 -3
v 0.69999998807907 3 -3
# 57 vertices

vn 0 1 0
vn -1 0 0
vn 1 0 0
vn 0 0 1
vn 0 0 -1
vn 0 0 0
vn 0 -1 0
# 7 normals

vt 0.6975947022438 0.51284545660019 0
vt 0.6975947022438 0.34449338912964 0
vt 0.63446265459061 0.51284545660019 0
vt 0.71866059303284 0.27687191963196 0
vt 0.62394064664841 0.53935515880585 0
vt 0.48715457320213 0.53935515880585 0
vt 0.59237462282181 0.56039917469025 0
vt 0.61015242338181 0.36651372909546 0
vt 0.56080859899521 0.56039917469025 0
vt 0.63446265459061 0.40762543678284 0
vt 0.71887981891632 0.27687191963196 0
vt 0.48715457320213 0.56039917469025 0
vt 0.57133060693741 0.64457523822784 0
vt 0.60993319749832 0.36651372909546 0
vt 0.61341863870621 0.51284545660019 0
vt 0.61341863870621 0.40762543678284 0
vt 0.57133060693741 0.51284545660019 0
vt 0.55028659105301 0.64457523822784 0
vt 0.8499590754509 0.7763050198555 0
vt 0.40803480148315 0.7763050198555 0
vt 0.8499590754509 0.98674511909485 0
vt 0.76054394245148 0.66659557819366 0
vt 0.37646877765656 0.7763050198555 0
vt 0.40803480148315 0.98674511909485 0
vt 0.78706818819046 0.66659557819366 0
vt 0.73444366455078 0.27687191963196 0
vt 0.38699078559875 0.98674511909485 0
vt 0.34490275382996 0.7763050198555 0
vt 0.36594676971436 0.98674511909485 0
vt 0.32385876774788 0.7763050198555 0
vt 0.34490275382996 0.98674511909485 0
vt 0.30281475186348 0.7763050198555 0
vt 0.32385876774788 0.98674511909485 0
vt 0.25020471215248 0.7763050198555 0
vt 0.30281475186348 0.98674511909485 0
vt 0.65550667047501 0.74979531764984 0
vt 0.67655068635941 0.74979531764984 0
vt 0.62571626901627 0.36651372909546 0
vt 0.48715457320213 0.74979531764984 0
vt 0.65509724617004 0.03429889678955 0
vt 0.64457523822784 0.01325488090515 0
vt 0.58144319057465 0.01325488090515 0
vt 0.79821842908859 -0.20167446136475 0
vt 0.74979531764984 0.01325488090515 0
vt 0.79843765497208 -0.20167446136475 0
vt 0.57133060693741 0.40762543678284 0
vt 0.84794974327087 0.23478400707245 0
vt 0.68666326999664 0.03429889678955 0
vt 0.74979531764984 0.03429889678955 0
vt 0.55028659105301 0.51284545660019 0
vt 0.55028659105301 0.40762543678284 0
vt 0.48715457320213 0.51284545660019 0
vt 0.84773057699203 0.23478400707245 0
vt 0.66561925411224 0.11847496032715 0
vt 0.74979531764984 0.22369503974915 0
vt 0.01325486321002 0.22369503974915 0
vt 0.45517912507057 0.01325488090515 0
vt 0.01325486321002 0.01325488090515 0
vt 0.81400150060654 -0.20167446136475 0
vt 0.45517912507057 0.22369503974915 0
vt 0.47622314095497 0.01325488090515 0
vt 0.84052568674088 -0.20167446136475 0
vt 0.47622314095497 0.22369503974915 0
vt 0.49726715683937 0.01325488090515 0
vt 0.49726715683937 0.22369503974915 0
vt 0.51831114292145 0.01325488090515 0
vt 0.51831114292145 0.22369503974915 0
vt 0.53935515880585 0.01325488090515 0
vt 0.53935515880585 0.22369503974915 0
vt 0.56039917469025 0.01325488090515 0
vt 0.56039917469025 0.22369503974915 0
vt 0.58144319057465 0.22369503974915 0
vt 0.48715457320213 0.34449338912964 0
vt 0.25020471215248 0.30240535736084 0
vt 0.25020471215248 0.51284545660019 0
vt 0.46064484119415 0.30240535736084 0
vt 0.503573179245 0.28697311878204 0
vt 0.46064484119415 0.51284545660019 0
vt 0.39751279354095 0.62353122234344 0
vt 0.46064484119415 0.74979531764984 0
vt 0.46064484119415 0.56039917469025 0
vt 0.63883936405182 0.60669600963593 0
vt 0.39751279354095 0.74979531764984 0
vt 0.37646877765656 0.62353122234344 0
vt 0.6390585899353 0.60669600963593 0
vt 0.37646877765656 0.74979531764984 0
vt 0.33438074588776 0.62353122234344 0
vt 0.33438074588776 0.74979531764984 0
vt 0.31333675980568 0.62353122234344 0
vt 0.43960082530975 0.43413507938385 0
vt 0.31333675980568 0.74979531764984 0
vt 0.25020471215248 0.53935515880585 0
vt 0.46064484119415 0.53935515880585 0
vt 0.25020471215248 0.56039917469025 0
vt 0.25020471215248 0.74979531764984 0
vt 0.01325486321002 0.98674511909485 0
vt 0.2236949801445 0.98674511909485 0
vt 0.01325486321002 0.54482090473175 0
vt 0.08340156823397 0.62899696826935 0
vt 0.2236949801445 0.54482090473175 0
vt 0.01325486321002 0.51325488090515 0
vt 0.2236949801445 0.52377688884735 0
vt 0.67655068635941 0.24628794193268 0
vt 0.2236949801445 0.50273287296295 0
vt 0.01325486321002 0.48168885707855 0
vt 0.2236949801445 0.48168885707855 0
vt 0.01325486321002 0.46064484119415 0
vt 0.2236949801445 0.46064484119415 0
vt 0.01325486321002 0.43960082530975 0
vt 0.2236949801445 0.43960082530975 0
vt 0.01325486321002 0.38699078559875 0
vt 0.2236949801445 0.41855680942535 0
vt 0.2236949801445 0.35542476177216 0
vt 0.01325486321002 0.25020468235016 0
vt 0.2236949801445 0.25020468235016 0
vt 0.7763050198555 0.45517909526825 0
vt 0.98674511909485 0.01325488090515 0
vt 0.7763050198555 0.01325488090515 0
vt 0.84645169973373 -0.04987716674805 0
vt 0.98674511909485 0.45517909526825 0
vt 0.7763050198555 0.47622311115265 0
vt 0.98674511909485 0.47622311115265 0
vt 0.7763050198555 0.49726712703705 0
vt 0.98674511909485 0.49726712703705 0
vt 0.7763050198555 0.51831114292145 0
vt 0.98674511909485 0.51831114292145 0
vt 0.7763050198555 0.53935515880585 0
vt 0.98674511909485 0.53935515880585 0
vt 0.7763050198555 0.56039917469025 0
vt 0.98674511909485 0.56039917469025 0
vt 0.7763050198555 0.58144319057465 0
vt 0.98674511909485 0.58144319057465 0
# 132 texture coordinates

o Arm.1
usemtl Arm
f 33/3/1 53/2/1 24/1/1
f 7/7/2 27/6/2 5/5/2
f 9/9/2 27/6/2 7/7/2
f 57/10/1 53/2/1 33/3/1
f 28/12/2 27/6/2 9/9/2
f 10/13/2 9/9/2 7/7/2
f 2/17/1 56/16/1 8/15/1
f 11/18/2 28/12/2 9/9/2
f 11/18/2 9/9/2 10/13/2
f 38/21/2 1/20/2 25/19/2
f 40/24/2 34/23/2 1/20/2
f 40/24/2 1/20/2 38/21/2
f 56/16/1 57/10/1 8/15/1
f 42/27/2 34/23/2 40/24/2
f 44/29/2 3/28/2 34/23/2
f 44/29/2 34/23/2 42/27/2
f 46/31/2 4/30/2 3/28/2
f 46/31/2 3/28/2 44/29/2
f 48/33/2 35/32/2 4/30/2
f 48/33/2 4/30/2 46/31/2
f 50/35/2 5/34/2 35/32/2
f 50/35/2 35/32/2 48/33/2
f 52/36/2 7/7/2 5/5/2
f 52/36/2 5/5/2 50/37/2
f 52/36/2 10/13/2 7/7/2
f 52/36/2 11/18/2 10/13/2
f 6/39/2 28/12/2 11/18/2
f 6/39/2 11/18/2 52/36/2
f 36/42/3 37/41/3 19/40/3
f 37/41/3 18/44/3 19/40/3
f 55/46/1 56/16/1 2/17/1
f 19/40/3 18/44/3 21/48/3
f 21/48/3 18/44/3 22/49/3
f 6/52/1 54/51/1 20/50/1
f 19/40/3 21/48/3 23/54/3
f 21/48/3 22/49/3 24/55/3
f 23/54/3 21/48/3 24/55/3
f 26/58/3 12/57/3 39/56/3
f 12/57/3 13/61/3 41/60/3
f 39/56/3 12/57/3 41/60/3
f 13/61/3 14/64/3 43/63/3
f 41/60/3 13/61/3 43/63/3
f 14/64/3 15/66/3 45/65/3
f 43/63/3 14/64/3 45/65/3
f 15/66/3 16/68/3 47/67/3
f 45/65/3 15/66/3 47/67/3
f 16/68/3 17/70/3 49/69/3
f 47/67/3 16/68/3 49/69/3
f 17/70/3 36/42/3 51/71/3
f 49/69/3 17/70/3 51/71/3
f 36/42/3 19/40/3 53/72/3
f 51/71/3 36/42/3 53/72/3
f 19/40/3 23/54/3 53/72/3
f 23/54/3 24/55/3 53/72/3
f 54/51/1 55/46/1 20/50/1
f 52/73/1 54/51/1 6/52/1
f 26/76/4 38/75/4 25/74/4
f 39/78/4 38/75/4 26/76/4
f 28/81/5 6/80/5 29/79/5
f 29/79/5 6/80/5 20/83/5
f 28/81/5 29/79/5 30/84/5
f 29/79/5 20/83/5 30/84/5
f 30/84/5 20/83/5 2/86/5
f 28/81/5 30/84/5 31/87/5
f 30/84/5 2/86/5 31/87/5
f 31/87/5 2/86/5 8/88/5
f 28/81/5 31/87/5 32/89/5
f 31/87/5 8/88/5 32/89/5
f 32/89/5 8/88/5 33/91/5
f 27/93/5 28/81/5 18/92/5
f 28/81/5 32/89/5 22/94/5
f 18/92/5 28/81/5 22/94/5
f 32/89/5 33/91/5 22/94/5
f 22/94/5 33/91/5 24/95/5
f 1/98/7 26/97/7 25/96/7
f 12/100/7 26/97/7 1/98/7
f 34/101/7 12/100/7 1/98/7
f 13/102/7 12/100/7 34/101/7
f 20/50/1 55/46/1 2/17/1
f 14/104/7 13/102/7 34/101/7
f 3/105/7 14/104/7 34/101/7
f 15/106/7 14/104/7 3/105/7
f 4/107/7 15/106/7 3/105/7
f 16/108/7 15/106/7 4/107/7
f 35/109/7 16/108/7 4/107/7
f 17/110/7 16/108/7 35/109/7
f 5/111/7 17/110/7 35/109/7
f 36/112/7 17/110/7 5/111/7
f 8/15/1 57/10/1 33/3/1
f 37/113/7 36/112/7 5/111/7
f 27/114/7 37/113/7 5/111/7
f 18/115/7 37/113/7 27/114/7
f 38/118/1 39/117/1 40/116/1
f 40/116/1 39/117/1 41/120/1
f 40/116/1 41/120/1 42/121/1
f 42/121/1 41/120/1 43/122/1
f 42/121/1 43/122/1 44/123/1
f 44/123/1 43/122/1 45/124/1
f 44/123/1 45/124/1 46/125/1
f 46/125/1 45/124/1 47/126/1
f 46/125/1 47/126/1 48/127/1
f 48/127/1 47/126/1 49/128/1
f 48/127/1 49/128/1 50/129/1
f 50/129/1 49/128/1 51/130/1
f 50/129/1 51/130/1 52/131/1
f 52/131/1 51/130/1 53/132/1
f 52/73/1 53/2/1 54/51/1
f 54/51/1 53/2/1 55/46/1
f 55/46/1 53/2/1 56/16/1
f 56/16/1 53/2/1 57/10/1

